<svg width="88" height="88" viewBox="0 0 88 88" fill="none" xmlns="http://www.w3.org/2000/svg">
<g filter="url(#filter0_d_412_297)">
<rect x="4" width="80" height="80" rx="40" fill="#1C232D" shape-rendering="crispEdges"/>
<path d="M13.1 44.46L9.26 40.1L13.1 35.72H18.02L14.18 40.1L18.02 44.46H13.1ZM27.8483 27.96L22.5083 50.86H18.7283L24.0683 27.96H27.8483ZM69.5939 35.72H74.4939L78.3339 40.1L74.4939 44.46H69.5939L73.4339 40.1L69.5939 35.72Z" fill="#60A5FA"/>
<path d="M27.9839 41.38C27.9839 40.22 28.1906 39.2067 28.6039 38.34C29.0306 37.4733 29.6106 36.8067 30.3439 36.34C31.0772 35.8733 31.8906 35.64 32.7839 35.64C33.5039 35.64 34.1439 35.7933 34.7039 36.1C35.2772 36.3933 35.7239 36.8 36.0439 37.32V32.2H39.9839V47H36.0439V45.44C35.7372 45.96 35.3039 46.3733 34.7439 46.68C34.1839 46.9867 33.5239 47.14 32.7639 47.14C31.8706 47.14 31.0572 46.9067 30.3239 46.44C29.6039 45.9733 29.0306 45.3067 28.6039 44.44C28.1906 43.56 27.9839 42.54 27.9839 41.38ZM36.0639 41.38C36.0639 40.66 35.8639 40.0933 35.4639 39.68C35.0772 39.2667 34.5972 39.06 34.0239 39.06C33.4372 39.06 32.9506 39.2667 32.5639 39.68C32.1772 40.08 31.9839 40.6467 31.9839 41.38C31.9839 42.1 32.1772 42.6733 32.5639 43.1C32.9506 43.5133 33.4372 43.72 34.0239 43.72C34.5972 43.72 35.0772 43.5133 35.4639 43.1C35.8639 42.6867 36.0639 42.1133 36.0639 41.38ZM46.1377 37.76C46.5777 37.12 47.111 36.6133 47.7377 36.24C48.3643 35.8667 49.0377 35.68 49.7577 35.68V39.86H48.6577C47.8043 39.86 47.171 40.0267 46.7577 40.36C46.3443 40.6933 46.1377 41.2733 46.1377 42.1V47H42.2177V35.78H46.1377V37.76ZM53.143 34.74C52.4496 34.74 51.8896 34.5533 51.463 34.18C51.0496 33.7933 50.843 33.3133 50.843 32.74C50.843 32.1533 51.0496 31.6667 51.463 31.28C51.8896 30.8933 52.4496 30.7 53.143 30.7C53.823 30.7 54.3696 30.8933 54.783 31.28C55.2096 31.6667 55.423 32.1533 55.423 32.74C55.423 33.3133 55.2096 33.7933 54.783 34.18C54.3696 34.5533 53.823 34.74 53.143 34.74ZM55.083 35.78V47H51.163V35.78H55.083ZM64.3153 47L62.2953 44.18L60.6953 47H56.3953L60.1353 41.18L56.2353 35.78H60.6353L62.6553 38.6L64.2753 35.78H68.5753L64.7553 41.5L68.7153 47H64.3153Z" fill="white"/>
</g>
<defs>
<filter id="filter0_d_412_297" x="0" y="0" width="88" height="88" filterUnits="userSpaceOnUse" color-interpolation-filters="sRGB">
<feFlood flood-opacity="0" result="BackgroundImageFix"/>
<feColorMatrix in="SourceAlpha" type="matrix" values="0 0 0 0 0 0 0 0 0 0 0 0 0 0 0 0 0 0 127 0" result="hardAlpha"/>
<feOffset dy="4"/>
<feGaussianBlur stdDeviation="2"/>
<feComposite in2="hardAlpha" operator="out"/>
<feColorMatrix type="matrix" values="0 0 0 0 0 0 0 0 0 0 0 0 0 0 0 0 0 0 0.25 0"/>
<feBlend mode="normal" in2="BackgroundImageFix" result="effect1_dropShadow_412_297"/>
<feBlend mode="normal" in="SourceGraphic" in2="effect1_dropShadow_412_297" result="shape"/>
</filter>
</defs>
</svg>
